<svg width="240" height="39" xmlns="http://www.w3.org/2000/svg" xmlns:xlink="http://www.w3.org/1999/xlink" overflow="hidden"><defs><clipPath id="clip0"><rect x="520" y="340" width="240" height="39"/></clipPath></defs><g clip-path="url(#clip0)" transform="translate(-520 -340)"><path d="M547.967 340.879C540.242 340.875 532.182 342.615 524.047 344.872 523.014 345.08 522.006 345.756 521.473 346.592 520.983 347.38 520.805 348.171 520.652 349 519.862 353.428 519.958 357.776 520.122 362.594 520.158 363.697 520.322 365.004 520.837 365.799 521.375 366.602 522.297 367.112 523.398 367.279 524.805 367.485 526.216 367.66 527.63 367.804L527.318 376.502C527.27 377.194 527.608 377.769 528.028 378.1 528.404 378.386 528.823 378.513 529.253 378.545 530.113 378.61 531.122 378.242 531.623 377.288 533.818 373.064 535.195 371.199 537.94 368.393 545.098 368.569 551.347 368.171 558.422 367.648 560.923 367.583 562.64 365.538 563.094 363.905 564.451 359.673 564.662 354.449 564.806 349.168 564.867 347.075 564.141 345.02 562.856 343.934 561.634 342.943 560.154 342.584 558.798 342.216 555.031 341.363 551.263 340.905 547.967 340.879ZM558.257 344.189C559.615 344.558 560.812 344.913 561.567 345.526 562.827 346.865 562.785 347.756 562.767 349.201 562.625 354.323 562.379 359.294 561.223 363.061 560.725 364.466 559.857 365.466 558.217 365.617 551.009 366.15 544.755 366.562 537.51 366.356 537.225 366.347 536.949 366.456 536.747 366.658 533.703 369.732 532.146 371.868 529.826 376.334 529.772 376.436 529.655 376.498 529.511 376.509 529.414 376.504 529.375 376.429 529.369 376.361L529.683 366.929C529.702 366.42 529.282 365.934 528.776 365.879 527.084 365.717 525.397 365.511 523.716 365.259 522.99 365.148 522.722 364.949 522.523 364.653 522.177 363.828 522.185 363.318 522.158 362.525 521.996 357.75 521.916 353.577 522.649 349.425 522.717 348.811 522.947 348.183 523.191 347.658 523.595 347.026 524.214 346.933 524.835 346.761 532.791 344.564 540.575 342.921 547.903 342.916 551.495 343.046 555.267 343.406 558.257 344.189ZM530.778 352.279C529.682 353.592 529.791 355.375 530.638 356.569 531.08 357.194 531.77 357.697 532.61 357.811 533.701 357.901 534.393 357.459 535.14 356.951 536.493 355.775 536.63 353.723 535.601 352.241 535.077 351.486 534.239 351.033 533.383 351.001 532.211 351.013 531.415 351.536 530.778 352.278ZM542.634 351.207C541.542 351.242 540.659 351.998 540.12 352.814 539.503 353.747 539.143 354.915 539.642 356.06 540.602 358.263 543.919 358.236 545.242 355.997 545.852 354.965 545.696 353.792 545.242 352.941 544.79 352.091 544.106 351.398 543.111 351.239 542.953 351.213 542.794 351.202 542.634 351.207ZM552.259 351.414C551.919 351.406 551.569 351.438 551.241 351.525 549.929 351.875 548.812 353.229 548.981 354.962 549.067 355.834 549.468 356.684 550.191 357.27 550.914 357.855 551.964 358.117 553.071 357.89 554.343 357.63 555.131 356.605 555.394 355.615 555.657 354.625 555.591 353.616 554.98 352.798 554.336 351.941 553.332 351.431 552.26 351.414ZM533.294 353.037C533.539 353.039 533.732 353.117 533.931 353.403 534.376 354.045 534.252 355.018 533.803 355.408 533.356 355.798 533.077 355.832 532.881 355.806 532.685 355.779 532.486 355.644 532.308 355.392 531.968 354.912 531.868 354.136 532.315 353.582 532.553 353.266 532.99 353.069 533.295 353.037ZM542.777 353.26C542.815 353.266 543.241 353.513 543.445 353.896 543.649 354.279 543.687 354.635 543.493 354.962 542.916 355.938 541.689 355.674 541.503 355.249 541.433 355.087 541.486 354.436 541.823 353.929 542.158 353.42 542.58 353.229 542.777 353.259ZM553.341 354.008C553.403 354.091 553.554 354.648 553.437 355.09 553.319 355.532 553.127 355.805 552.657 355.901 552.055 356.025 551.717 355.901 551.464 355.694 551.21 355.489 551.039 355.142 551.002 354.771 550.912 353.851 551.242 353.638 551.766 353.498 552.376 353.348 553.066 353.61 553.341 354.008Z" fill="#FFFFFF"/><path d="M577.61 344.996C577.626 344.736 577.721 344.502 577.897 344.295 578.071 344.089 578.329 343.975 578.598 343.985L585.424 343.985C585.654 343.985 585.891 344.081 586.136 344.272 586.369 344.439 586.506 344.709 586.504 344.996L586.504 355.889 597.925 355.889 597.925 344.996C597.925 344.72 598.021 344.483 598.212 344.284 598.404 344.084 598.652 343.984 598.959 343.984L605.693 343.984C605.999 343.984 606.267 344.061 606.497 344.214 606.727 344.368 606.842 344.613 606.842 344.95L606.842 377.1C606.842 377.437 606.742 377.69 606.542 377.858 606.344 378.027 606.083 378.111 605.762 378.111L598.959 378.111C598.653 378.111 598.404 378.027 598.212 377.858 598.021 377.69 597.925 377.438 597.925 377.1L597.925 364.047 586.504 364.047 586.504 377.1C586.504 377.422 586.4 377.67 586.194 377.847 585.987 378.023 585.707 378.111 585.354 378.111L578.598 378.111C577.955 378.111 577.626 377.812 577.61 377.215L577.61 344.996ZM640.485 377.721C640.286 377.889 640.075 377.996 639.853 378.042 639.646 378.087 639.434 378.11 639.222 378.112L635.752 378.112C635.476 378.112 635.238 378.062 635.039 377.962 634.839 377.862 634.671 377.728 634.533 377.56 634.392 377.385 634.276 377.192 634.189 376.985 634.096 376.769 634.02 376.546 633.959 376.319L633.247 373.377C633.017 373.852 632.684 374.392 632.247 374.997 631.774 375.639 631.213 376.211 630.581 376.697 629.907 377.227 629.102 377.671 628.168 378.031 627.233 378.391 626.161 378.571 624.95 378.571 623.204 378.571 621.618 378.234 620.193 377.56 618.798 376.908 617.557 375.968 616.551 374.802 615.548 373.638 614.77 372.278 614.219 370.722 613.667 369.168 613.391 367.509 613.391 365.748L613.391 350.695C613.391 350.113 613.518 349.673 613.771 349.374 614.023 349.075 614.425 348.926 614.977 348.926L620.285 348.926C620.945 348.926 621.396 349.036 621.641 349.259 621.886 349.481 622.009 349.914 622.009 350.557L622.009 365.517C622.009 366.177 622.159 366.801 622.457 367.391 622.756 367.981 623.15 368.501 623.641 368.953 624.131 369.405 624.686 369.762 625.307 370.022 625.927 370.282 626.559 370.412 627.203 370.412 627.754 370.412 628.325 370.282 628.915 370.022 629.509 369.759 630.059 369.406 630.546 368.976 631.044 368.54 631.454 368.026 631.776 367.436 632.098 366.846 632.258 366.222 632.258 365.564L632.258 350.626C632.258 350.366 632.308 350.106 632.408 349.845 632.508 349.585 632.657 349.385 632.856 349.247 633.055 349.125 633.243 349.041 633.419 348.995 633.595 348.949 633.799 348.925 634.028 348.925L639.222 348.925C639.88 348.925 640.355 349.087 640.646 349.408 640.937 349.73 641.083 350.159 641.083 350.695L641.083 376.411C641.083 376.701 641.018 376.97 640.888 377.215 640.758 377.46 640.578 377.652 640.348 377.789L640.485 377.721ZM667.166 374.549C666.752 374.963 666.296 375.407 665.799 375.882 665.301 376.357 664.753 376.802 664.156 377.215 663.555 377.631 662.907 377.974 662.226 378.238 661.514 378.51 660.758 378.646 659.996 378.64 657.913 378.64 655.994 378.25 654.239 377.468 652.528 376.717 650.988 375.627 649.712 374.262 648.448 372.906 647.46 371.309 646.748 369.47 646.035 367.632 645.679 365.656 645.679 363.541 645.679 361.411 646.035 359.431 646.748 357.601 647.46 355.771 648.448 354.177 649.712 352.821 650.987 351.458 652.527 350.371 654.239 349.627 655.994 348.853 657.913 348.466 659.996 348.466 660.839 348.466 661.609 348.589 662.306 348.834 662.979 349.067 663.619 349.383 664.213 349.776 664.788 350.159 665.316 350.592 665.799 351.074 666.281 351.557 666.737 352.028 667.166 352.488L667.166 341.985C667.166 341.495 667.316 341.082 667.614 340.745 667.913 340.407 668.361 340.239 668.959 340.239L674.129 340.239C674.329 340.239 674.539 340.281 674.761 340.365 674.983 340.45 675.186 340.568 675.371 340.722 675.554 340.875 675.703 341.059 675.818 341.273 675.933 341.488 675.991 341.725 675.991 341.985L675.991 376.342C675.991 377.522 675.371 378.112 674.129 378.112L669.625 378.112C669.319 378.112 669.081 378.072 668.913 377.996 668.746 377.921 668.6 377.807 668.487 377.663 668.359 377.494 668.255 377.309 668.177 377.112 668.069 376.853 667.954 376.596 667.833 376.342L667.166 374.549ZM653.952 363.541C653.944 364.507 654.104 365.468 654.423 366.38 654.737 367.26 655.185 368.023 655.768 368.666 656.357 369.314 657.072 369.834 657.87 370.194 658.69 370.57 659.598 370.757 660.594 370.757 661.574 370.757 662.497 370.581 663.363 370.229 664.204 369.892 664.972 369.396 665.626 368.769 666.275 368.141 666.802 367.397 667.178 366.575 667.568 365.732 667.787 364.828 667.833 363.863L667.833 363.541C667.836 362.579 667.649 361.627 667.281 360.738 666.925 359.867 666.406 359.072 665.753 358.394 665.098 357.717 664.318 357.175 663.455 356.797 662.553 356.402 661.578 356.202 660.594 356.211 659.598 356.211 658.69 356.406 657.87 356.797 657.05 357.187 656.35 357.72 655.768 358.394 655.176 359.084 654.72 359.879 654.423 360.738 654.107 361.639 653.948 362.587 653.953 363.541ZM702.672 374.549C702.258 374.963 701.802 375.407 701.304 375.882 700.806 376.357 700.258 376.802 699.661 377.215 699.06 377.631 698.412 377.974 697.731 378.238 697.019 378.51 696.263 378.646 695.501 378.64 693.418 378.64 691.499 378.25 689.745 377.468 688.034 376.717 686.493 375.627 685.217 374.262 683.954 372.906 682.965 371.309 682.253 369.47 681.541 367.632 681.184 365.656 681.184 363.541 681.184 361.411 681.541 359.431 682.253 357.601 682.965 355.771 683.953 354.177 685.217 352.821 686.492 351.458 688.033 350.371 689.745 349.627 691.499 348.853 693.418 348.466 695.501 348.466 696.344 348.466 697.114 348.589 697.811 348.834 698.484 349.067 699.124 349.383 699.718 349.776 700.293 350.159 700.821 350.592 701.304 351.074 701.787 351.557 702.242 352.028 702.671 352.488L702.671 341.985C702.671 341.495 702.821 341.082 703.119 340.745 703.419 340.407 703.866 340.239 704.464 340.239L709.634 340.239C709.834 340.239 710.044 340.281 710.266 340.365 710.489 340.45 710.692 340.568 710.876 340.722 711.059 340.875 711.209 341.059 711.324 341.273 711.438 341.488 711.496 341.725 711.496 341.985L711.496 376.342C711.496 377.522 710.876 378.112 709.634 378.112L705.13 378.112C704.824 378.112 704.586 378.072 704.418 377.996 704.252 377.921 704.106 377.807 703.993 377.663 703.865 377.494 703.761 377.309 703.683 377.112 703.574 376.853 703.459 376.596 703.338 376.342L702.671 374.549ZM689.457 363.541C689.449 364.507 689.609 365.468 689.928 366.38 690.243 367.26 690.691 368.023 691.273 368.666 691.862 369.314 692.578 369.834 693.376 370.194 694.196 370.57 695.103 370.757 696.099 370.757 697.079 370.757 698.002 370.581 698.868 370.229 699.709 369.892 700.478 369.396 701.132 368.769 701.781 368.141 702.306 367.396 702.682 366.575 703.073 365.732 703.292 364.828 703.338 363.863L703.338 363.541C703.341 362.579 703.154 361.627 702.786 360.738 702.43 359.867 701.911 359.072 701.258 358.394 700.603 357.717 699.823 357.175 698.96 356.797 698.058 356.402 697.083 356.202 696.099 356.211 695.103 356.211 694.195 356.406 693.376 356.797 692.556 357.187 691.855 357.72 691.273 358.394 690.681 359.084 690.225 359.879 689.928 360.738 689.612 361.639 689.453 362.587 689.458 363.541ZM717.61 342.008C717.61 341.518 717.732 341.105 717.977 340.768 718.223 340.43 718.644 340.262 719.241 340.262L724.871 340.262C725.025 340.262 725.186 340.304 725.354 340.388 725.531 340.479 725.69 340.599 725.825 340.745 725.971 340.898 726.093 341.082 726.193 341.296 726.293 341.511 726.343 341.748 726.343 342.008L726.343 376.342C726.343 376.924 726.178 377.364 725.848 377.663 725.519 377.962 725.094 378.111 724.573 378.111L719.241 378.111C718.644 378.111 718.223 377.961 717.977 377.663 717.732 377.364 717.61 376.923 717.61 376.342L717.61 342.008ZM756.31 374.618C754.978 375.849 753.437 376.833 751.76 377.525 750.062 378.225 748.242 378.58 746.405 378.571 744.305 378.571 742.322 378.188 740.453 377.421 738.626 376.683 736.957 375.603 735.535 374.239 734.118 372.873 732.979 371.246 732.18 369.447 731.352 367.609 730.939 365.61 730.939 363.449 730.939 362.101 731.103 360.795 731.433 359.531 731.752 358.294 732.223 357.102 732.835 355.981 733.44 354.878 734.181 353.855 735.041 352.936 735.898 352.016 736.876 351.215 737.948 350.557 739.038 349.89 740.213 349.372 741.441 349.017 742.733 348.645 744.071 348.459 745.416 348.466 746.688 348.466 747.921 348.635 749.116 348.972 750.311 349.309 751.434 349.784 752.483 350.396 753.533 351.009 754.493 351.745 755.367 352.603 756.229 353.447 756.985 354.392 757.619 355.418 758.247 356.437 758.738 357.534 759.079 358.681 759.423 359.838 759.596 361.029 759.596 362.254 759.596 363.051 759.584 363.702 759.561 364.208 759.538 364.713 759.419 365.116 759.205 365.414 758.99 365.714 758.635 365.92 758.136 366.034 757.638 366.15 756.906 366.207 755.942 366.207L739.396 366.207C739.549 367.187 739.859 368.007 740.326 368.667 740.759 369.292 741.309 369.826 741.946 370.24 742.559 370.631 743.21 370.91 743.9 371.08 744.539 371.242 745.194 371.326 745.853 371.332 746.405 371.332 746.971 371.274 747.553 371.16 748.127 371.047 748.691 370.894 749.243 370.7 749.759 370.521 750.258 370.298 750.736 370.033 751.188 369.781 751.552 369.516 751.828 369.241 752.073 369.041 752.284 368.892 752.46 368.792 752.636 368.692 752.824 368.643 753.023 368.643 753.223 368.643 753.425 368.713 753.633 368.85 753.885 369.026 754.119 369.226 754.333 369.447L756.769 372.205C756.937 372.405 757.045 372.585 757.091 372.745 757.137 372.906 757.16 373.071 757.16 373.239 757.16 373.546 757.075 373.81 756.907 374.032 756.737 374.255 756.536 374.453 756.309 374.618ZM745.256 355.475C744.658 355.475 744.08 355.594 743.521 355.831 742.954 356.073 742.423 356.394 741.946 356.785 741.456 357.183 741.016 357.635 740.625 358.141 740.252 358.618 739.932 359.134 739.671 359.681L751.414 359.681C751.106 359.105 750.757 358.552 750.369 358.026 750 357.527 749.568 357.079 749.082 356.693 748.585 356.302 748.026 355.999 747.427 355.797 746.807 355.582 746.083 355.475 745.256 355.475Z" fill="#FFFFFF"/></g></svg>